<svg width="85" height="92" viewBox="0 0 85 92" fill="none" xmlns="http://www.w3.org/2000/svg">
<path d="M25.8885 42.1977C26.7876 44.0376 27.9187 44.809 29.0736 44.809C30.2717 44.809 31.4324 44.0229 32.3501 42.1885C33.2685 40.3529 33.8386 37.6314 33.8386 34.2605C33.8386 30.8893 33.2684 28.1858 32.3517 26.368C31.4374 24.555 30.2783 23.7769 29.0736 23.7769C27.9121 23.7769 26.7827 24.5405 25.887 26.3588C24.9906 28.1788 24.4351 30.8857 24.4351 34.2605C24.4351 37.6351 24.9905 40.3599 25.8885 42.1977Z" fill="white"/>
<path d="M50.9996 63.9012C51.8987 65.7412 53.0298 66.5125 54.1847 66.5125C55.3828 66.5125 56.5435 65.7264 57.4612 63.8921C58.3795 62.0564 58.9497 59.335 58.9497 55.964C58.9497 52.5929 58.3795 49.8893 57.4628 48.0716C56.5485 46.2585 55.3894 45.4805 54.1847 45.4805C53.0232 45.4805 51.8938 46.244 50.9981 48.0624C50.1017 49.8823 49.5462 52.5892 49.5462 55.964C49.5462 59.3386 50.1016 62.0634 50.9996 63.9012Z" fill="white"/>
<path fill-rule="evenodd" clip-rule="evenodd" d="M13.857 86.3903C31.1974 98.5383 58.0785 90.3029 73.8976 67.996C89.7166 45.6891 88.4834 17.7578 71.143 5.60974C53.8026 -6.53832 26.9215 1.69707 11.1025 24.004C-4.71663 46.3109 -3.48337 74.2422 13.857 86.3903ZM57.9454 18.3308L60.7441 20.1912L26.4332 69.5528L23.7813 67.3392L50.0473 29.5858C48.7794 30.1074 47.4779 30.4443 46.1413 30.586C43.9663 30.8167 41.7432 30.526 39.4707 29.7237C39.8541 31.1202 40.0584 32.6443 40.0584 34.2605C40.0584 42.0909 35.316 47.7548 29.0736 47.7548C22.8825 47.7548 18.2153 42.0764 18.2153 34.2605C18.2153 26.5794 22.8153 20.8311 29.0736 20.8311C31.034 20.8311 32.8509 21.4028 34.4473 22.3907C37.6757 23.9921 40.2165 25.2129 42.3606 25.9956C44.5109 26.7806 46.1692 27.0883 47.6352 26.9366C50.5247 26.6377 53.0901 24.51 57.3493 19.0895L57.9454 18.3308ZM43.3264 55.964C43.3264 48.2829 47.9264 42.5347 54.1847 42.5347C60.4943 42.5347 65.1694 48.2684 65.1694 55.964C65.1694 63.7944 60.4271 69.4583 54.1847 69.4583C47.9936 69.4583 43.3264 63.7799 43.3264 55.964Z" fill="white"/>
</svg>
