<svg width="256" height="280" viewBox="0 0 256 280" fill="none" xmlns="http://www.w3.org/2000/svg">
<path fill-rule="evenodd" clip-rule="evenodd" d="M216.614 0L231.873 10.1698L44.8049 280L30.3465 267.9L173.552 61.5245C166.639 64.3754 159.544 66.217 152.256 66.992C140.398 68.2531 128.277 66.6636 115.887 62.2781C117.977 69.912 119.091 78.2432 119.091 87.0779C119.091 129.882 93.2354 160.843 59.2007 160.843C25.4462 160.843 0 129.803 0 87.0779C0 45.0901 25.0798 13.6677 59.2007 13.6677C69.8892 13.6677 79.795 16.7927 88.499 22.1931C106.101 30.9466 119.953 37.6205 131.643 41.899C143.367 46.1898 152.408 47.872 160.401 47.0429C176.155 45.4088 190.142 33.7778 213.363 4.14732L216.614 0ZM136.909 205.718C136.909 163.731 161.989 132.308 196.11 132.308C230.511 132.308 256 163.651 256 205.718C256 248.522 230.144 279.484 196.11 279.484C162.355 279.484 136.909 248.443 136.909 205.718ZM59.2007 144.74C52.9045 144.74 46.7372 140.524 41.8355 130.466C36.9392 120.42 33.9111 105.525 33.9111 87.0779C33.9111 68.6298 36.9396 53.833 41.8271 43.8843C46.7104 33.9444 52.8683 29.7706 59.2007 29.7706C65.7689 29.7706 72.0887 34.0239 77.0735 43.9346C82.0714 53.8713 85.1801 68.6499 85.1801 87.0779C85.1801 105.505 82.0718 120.381 77.0649 130.416C72.0616 140.443 65.7329 144.74 59.2007 144.74ZM178.744 249.107C183.646 259.164 189.813 263.381 196.11 263.381C202.642 263.381 208.97 259.084 213.974 249.056C218.981 239.022 222.089 224.145 222.089 205.718C222.089 187.29 218.98 172.512 213.982 162.575C208.998 152.664 202.678 148.411 196.11 148.411C189.777 148.411 183.619 152.585 178.736 162.525C173.848 172.473 170.82 187.27 170.82 205.718C170.82 224.165 173.848 239.06 178.744 249.107Z" fill="black"/>
</svg>
